<mxfile host="app.diagrams.net" modified="2022-09-02T15:12:08.058Z" agent="5.0 (Windows NT 10.0; Win64; x64) AppleWebKit/537.36 (KHTML, like Gecko) Chrome/104.0.5112.102 Safari/537.36 Edg/104.0.1293.70" etag="REDBJUn6GRn2AcpNJZ8e" version="20.2.8" type="github">
  <diagram id="bQn_8MbS-EU-KnfHHXnH" name="Page-1">
    <mxGraphModel dx="803" dy="451" grid="1" gridSize="10" guides="1" tooltips="1" connect="1" arrows="1" fold="1" page="1" pageScale="1" pageWidth="1169" pageHeight="827" background="none" math="0" shadow="0">
      <root>
        <mxCell id="0" />
        <mxCell id="1" parent="0" />
        <mxCell id="opUhy12Lz94qFMG0uhZe-6" value="" style="edgeStyle=orthogonalEdgeStyle;rounded=0;orthogonalLoop=1;jettySize=auto;html=1;" parent="1" source="opUhy12Lz94qFMG0uhZe-3" edge="1">
          <mxGeometry relative="1" as="geometry">
            <mxPoint x="258" y="217" as="targetPoint" />
          </mxGeometry>
        </mxCell>
        <mxCell id="opUhy12Lz94qFMG0uhZe-3" value="" style="shape=image;html=1;verticalAlign=top;verticalLabelPosition=bottom;labelBackgroundColor=#ffffff;imageAspect=0;aspect=fixed;image=https://cdn1.iconfinder.com/data/icons/cars-01-1/512/pickup-128.png" parent="1" vertex="1">
          <mxGeometry x="50" y="153" width="128" height="128" as="geometry" />
        </mxCell>
        <mxCell id="1RGvqvwajMvzkLIa3Tt1-11" value="" style="edgeStyle=orthogonalEdgeStyle;rounded=0;orthogonalLoop=1;jettySize=auto;html=1;" parent="1" source="opUhy12Lz94qFMG0uhZe-4" target="1RGvqvwajMvzkLIa3Tt1-6" edge="1">
          <mxGeometry relative="1" as="geometry" />
        </mxCell>
        <mxCell id="opUhy12Lz94qFMG0uhZe-4" value="" style="shape=mxgraph.signs.transportation.bus_2;html=1;pointerEvents=1;fillColor=#000000;strokeColor=none;verticalLabelPosition=bottom;verticalAlign=top;align=center;flipH=1;" parent="1" vertex="1">
          <mxGeometry x="33" y="474" width="162" height="60" as="geometry" />
        </mxCell>
        <mxCell id="opUhy12Lz94qFMG0uhZe-11" value="" style="edgeStyle=orthogonalEdgeStyle;rounded=0;orthogonalLoop=1;jettySize=auto;html=1;" parent="1" source="opUhy12Lz94qFMG0uhZe-7" target="opUhy12Lz94qFMG0uhZe-10" edge="1">
          <mxGeometry relative="1" as="geometry" />
        </mxCell>
        <mxCell id="opUhy12Lz94qFMG0uhZe-7" value="Pickup Mr. Ravi &amp;amp; Sebastian at 6:45" style="whiteSpace=wrap;html=1;verticalAlign=top;labelBackgroundColor=#ffffff;" parent="1" vertex="1">
          <mxGeometry x="260" y="187" width="90" height="60" as="geometry" />
        </mxCell>
        <mxCell id="opUhy12Lz94qFMG0uhZe-13" value="" style="edgeStyle=orthogonalEdgeStyle;rounded=0;orthogonalLoop=1;jettySize=auto;html=1;" parent="1" source="opUhy12Lz94qFMG0uhZe-10" target="opUhy12Lz94qFMG0uhZe-12" edge="1">
          <mxGeometry relative="1" as="geometry" />
        </mxCell>
        <mxCell id="opUhy12Lz94qFMG0uhZe-10" value="Drop them at Mangaf training hall" style="whiteSpace=wrap;html=1;verticalAlign=top;labelBackgroundColor=#ffffff;" parent="1" vertex="1">
          <mxGeometry x="381" y="187" width="90" height="60" as="geometry" />
        </mxCell>
        <mxCell id="opUhy12Lz94qFMG0uhZe-15" value="" style="edgeStyle=orthogonalEdgeStyle;rounded=0;orthogonalLoop=1;jettySize=auto;html=1;" parent="1" source="opUhy12Lz94qFMG0uhZe-12" target="opUhy12Lz94qFMG0uhZe-14" edge="1">
          <mxGeometry relative="1" as="geometry" />
        </mxCell>
        <mxCell id="opUhy12Lz94qFMG0uhZe-12" value="Pick Mr. Ullas &amp;amp; Craven at 7:15&amp;nbsp;" style="whiteSpace=wrap;html=1;verticalAlign=top;labelBackgroundColor=#ffffff;" parent="1" vertex="1">
          <mxGeometry x="490" y="187" width="80" height="60" as="geometry" />
        </mxCell>
        <mxCell id="opUhy12Lz94qFMG0uhZe-14" value="Drop them at Mangaf training hall &amp;amp; stay with them" style="whiteSpace=wrap;html=1;verticalAlign=top;labelBackgroundColor=#ffffff;" parent="1" vertex="1">
          <mxGeometry x="608" y="184" width="92" height="66" as="geometry" />
        </mxCell>
        <mxCell id="qVOmJEq2DApiEaPTz-TL-6" value="" style="edgeStyle=orthogonalEdgeStyle;rounded=0;orthogonalLoop=1;jettySize=auto;html=1;" parent="1" target="qVOmJEq2DApiEaPTz-TL-2" edge="1">
          <mxGeometry relative="1" as="geometry">
            <mxPoint x="190" y="323" as="sourcePoint" />
          </mxGeometry>
        </mxCell>
        <mxCell id="qVOmJEq2DApiEaPTz-TL-10" value="" style="edgeStyle=orthogonalEdgeStyle;rounded=0;orthogonalLoop=1;jettySize=auto;html=1;" parent="1" source="qVOmJEq2DApiEaPTz-TL-2" target="qVOmJEq2DApiEaPTz-TL-3" edge="1">
          <mxGeometry relative="1" as="geometry" />
        </mxCell>
        <mxCell id="qVOmJEq2DApiEaPTz-TL-2" value="Transport 11 people from camp @6:45" style="whiteSpace=wrap;html=1;verticalAlign=top;labelBackgroundColor=#ffffff;" parent="1" vertex="1">
          <mxGeometry x="260" y="293" width="90" height="60" as="geometry" />
        </mxCell>
        <mxCell id="qVOmJEq2DApiEaPTz-TL-11" value="" style="edgeStyle=orthogonalEdgeStyle;rounded=0;orthogonalLoop=1;jettySize=auto;html=1;" parent="1" source="qVOmJEq2DApiEaPTz-TL-3" target="qVOmJEq2DApiEaPTz-TL-4" edge="1">
          <mxGeometry relative="1" as="geometry" />
        </mxCell>
        <mxCell id="qVOmJEq2DApiEaPTz-TL-3" value="Drop them at Mangaf training hall" style="whiteSpace=wrap;html=1;verticalAlign=top;labelBackgroundColor=#ffffff;" parent="1" vertex="1">
          <mxGeometry x="381" y="293" width="79" height="60" as="geometry" />
        </mxCell>
        <mxCell id="qVOmJEq2DApiEaPTz-TL-12" value="" style="edgeStyle=orthogonalEdgeStyle;rounded=0;orthogonalLoop=1;jettySize=auto;html=1;" parent="1" source="qVOmJEq2DApiEaPTz-TL-4" target="qVOmJEq2DApiEaPTz-TL-5" edge="1">
          <mxGeometry relative="1" as="geometry" />
        </mxCell>
        <mxCell id="qVOmJEq2DApiEaPTz-TL-4" value="To Airport for dropping visa of Kamalakshan @8:00" style="whiteSpace=wrap;html=1;verticalAlign=top;labelBackgroundColor=#ffffff;" parent="1" vertex="1">
          <mxGeometry x="490" y="275" width="80" height="98" as="geometry" />
        </mxCell>
        <mxCell id="1RGvqvwajMvzkLIa3Tt1-2" value="" style="edgeStyle=orthogonalEdgeStyle;rounded=0;orthogonalLoop=1;jettySize=auto;html=1;entryX=0;entryY=0.5;entryDx=0;entryDy=0;" parent="1" source="qVOmJEq2DApiEaPTz-TL-5" target="1RGvqvwajMvzkLIa3Tt1-4" edge="1">
          <mxGeometry relative="1" as="geometry">
            <mxPoint x="731" y="324" as="targetPoint" />
          </mxGeometry>
        </mxCell>
        <mxCell id="qVOmJEq2DApiEaPTz-TL-5" value="Pick Kamalakshan arriving at 8:50" style="whiteSpace=wrap;html=1;verticalAlign=top;labelBackgroundColor=#ffffff;" parent="1" vertex="1">
          <mxGeometry x="608" y="295" width="92" height="58" as="geometry" />
        </mxCell>
        <mxCell id="qVOmJEq2DApiEaPTz-TL-9" value="" style="edgeStyle=orthogonalEdgeStyle;rounded=0;orthogonalLoop=1;jettySize=auto;html=1;" parent="1" source="qVOmJEq2DApiEaPTz-TL-8" target="qVOmJEq2DApiEaPTz-TL-2" edge="1">
          <mxGeometry relative="1" as="geometry" />
        </mxCell>
        <mxCell id="qVOmJEq2DApiEaPTz-TL-8" value="" style="shape=image;html=1;verticalAlign=top;verticalLabelPosition=bottom;labelBackgroundColor=#ffffff;imageAspect=0;aspect=fixed;image=https://cdn4.iconfinder.com/data/icons/car-silhouettes/1000/van-128.png;fillColor=#FFFFFF;" parent="1" vertex="1">
          <mxGeometry x="50" y="259" width="128" height="128" as="geometry" />
        </mxCell>
        <mxCell id="dfvIXqUmNmXKtJPytcft-2" value="" style="edgeStyle=orthogonalEdgeStyle;rounded=0;orthogonalLoop=1;jettySize=auto;html=1;" edge="1" parent="1" source="1RGvqvwajMvzkLIa3Tt1-4" target="dfvIXqUmNmXKtJPytcft-1">
          <mxGeometry relative="1" as="geometry" />
        </mxCell>
        <mxCell id="1RGvqvwajMvzkLIa3Tt1-4" value="To Camp" style="whiteSpace=wrap;html=1;verticalAlign=top;labelBackgroundColor=#ffffff;" parent="1" vertex="1">
          <mxGeometry x="726" y="308" width="69" height="32" as="geometry" />
        </mxCell>
        <mxCell id="1RGvqvwajMvzkLIa3Tt1-9" value="" style="edgeStyle=orthogonalEdgeStyle;rounded=0;orthogonalLoop=1;jettySize=auto;html=1;" parent="1" source="1RGvqvwajMvzkLIa3Tt1-6" target="1RGvqvwajMvzkLIa3Tt1-7" edge="1">
          <mxGeometry relative="1" as="geometry" />
        </mxCell>
        <mxCell id="1RGvqvwajMvzkLIa3Tt1-6" value="Transport 45 people from camp @7:30" style="whiteSpace=wrap;html=1;verticalAlign=top;labelBackgroundColor=#ffffff;" parent="1" vertex="1">
          <mxGeometry x="260" y="474" width="90" height="60" as="geometry" />
        </mxCell>
        <mxCell id="1RGvqvwajMvzkLIa3Tt1-10" value="" style="edgeStyle=orthogonalEdgeStyle;rounded=0;orthogonalLoop=1;jettySize=auto;html=1;" parent="1" source="1RGvqvwajMvzkLIa3Tt1-7" target="1RGvqvwajMvzkLIa3Tt1-8" edge="1">
          <mxGeometry relative="1" as="geometry" />
        </mxCell>
        <mxCell id="1RGvqvwajMvzkLIa3Tt1-7" value="Drop at KIPIC &amp;amp; stay in KIPIC" style="whiteSpace=wrap;html=1;verticalAlign=top;labelBackgroundColor=#ffffff;" parent="1" vertex="1">
          <mxGeometry x="381" y="474" width="79" height="60" as="geometry" />
        </mxCell>
        <mxCell id="1RGvqvwajMvzkLIa3Tt1-8" value="And back to camp from KIPIC after 16:30" style="whiteSpace=wrap;html=1;verticalAlign=top;labelBackgroundColor=#ffffff;" parent="1" vertex="1">
          <mxGeometry x="491" y="467" width="81" height="73" as="geometry" />
        </mxCell>
        <mxCell id="1RGvqvwajMvzkLIa3Tt1-15" value="Pickup - Abdul Khader" style="text;strokeColor=none;fillColor=none;align=left;verticalAlign=top;spacingLeft=4;spacingRight=4;overflow=hidden;rotatable=0;points=[[0,0.5],[1,0.5]];portConstraint=eastwest;fontStyle=1" parent="1" vertex="1">
          <mxGeometry x="59" y="161" width="140" height="26" as="geometry" />
        </mxCell>
        <mxCell id="1RGvqvwajMvzkLIa3Tt1-16" value="Hiace - Ernesto" style="text;strokeColor=none;fillColor=none;align=left;verticalAlign=top;spacingLeft=4;spacingRight=4;overflow=hidden;rotatable=0;points=[[0,0.5],[1,0.5]];portConstraint=eastwest;fontStyle=1" parent="1" vertex="1">
          <mxGeometry x="50" y="264" width="126" height="26" as="geometry" />
        </mxCell>
        <mxCell id="1RGvqvwajMvzkLIa3Tt1-17" value="Bus - Jasvinder" style="text;strokeColor=none;fillColor=none;align=left;verticalAlign=top;spacingLeft=4;spacingRight=4;overflow=hidden;rotatable=0;points=[[0,0.5],[1,0.5]];portConstraint=eastwest;fontStyle=1" parent="1" vertex="1">
          <mxGeometry x="50" y="435" width="126" height="26" as="geometry" />
        </mxCell>
        <mxCell id="1RGvqvwajMvzkLIa3Tt1-27" value="Transportation Plan for 3-Sep-2022 Saturday" style="text;strokeColor=none;fillColor=none;html=1;fontSize=24;fontStyle=1;verticalAlign=middle;align=center;" parent="1" vertex="1">
          <mxGeometry x="370.5" y="113" width="100" height="40" as="geometry" />
        </mxCell>
        <mxCell id="1RGvqvwajMvzkLIa3Tt1-30" style="edgeStyle=orthogonalEdgeStyle;rounded=0;orthogonalLoop=1;jettySize=auto;html=1;exitX=0.5;exitY=0;exitDx=0;exitDy=0;entryX=0.5;entryY=1;entryDx=0;entryDy=0;" parent="1" source="1RGvqvwajMvzkLIa3Tt1-28" target="qVOmJEq2DApiEaPTz-TL-2" edge="1">
          <mxGeometry relative="1" as="geometry" />
        </mxCell>
        <mxCell id="1RGvqvwajMvzkLIa3Tt1-28" value="Water Bottles 50Pcs" style="whiteSpace=wrap;html=1;verticalAlign=top;labelBackgroundColor=#ffffff;" parent="1" vertex="1">
          <mxGeometry x="260" y="377" width="90" height="40" as="geometry" />
        </mxCell>
        <mxCell id="1RGvqvwajMvzkLIa3Tt1-33" value="" style="edgeStyle=orthogonalEdgeStyle;rounded=0;orthogonalLoop=1;jettySize=auto;html=1;" parent="1" source="1RGvqvwajMvzkLIa3Tt1-31" target="1RGvqvwajMvzkLIa3Tt1-7" edge="1">
          <mxGeometry relative="1" as="geometry" />
        </mxCell>
        <mxCell id="1RGvqvwajMvzkLIa3Tt1-31" value="Food for the site people" style="whiteSpace=wrap;html=1;verticalAlign=top;labelBackgroundColor=#ffffff;" parent="1" vertex="1">
          <mxGeometry x="381" y="570" width="79" height="50" as="geometry" />
        </mxCell>
        <mxCell id="1RGvqvwajMvzkLIa3Tt1-36" value="" style="edgeStyle=orthogonalEdgeStyle;rounded=0;orthogonalLoop=1;jettySize=auto;html=1;" parent="1" source="1RGvqvwajMvzkLIa3Tt1-35" edge="1">
          <mxGeometry relative="1" as="geometry">
            <mxPoint x="120" y="340" as="targetPoint" />
          </mxGeometry>
        </mxCell>
        <mxCell id="1RGvqvwajMvzkLIa3Tt1-35" value="Original visa of Kamalakshan" style="whiteSpace=wrap;html=1;verticalAlign=top;labelBackgroundColor=#ffffff;" parent="1" vertex="1">
          <mxGeometry x="74" y="371" width="90" height="40" as="geometry" />
        </mxCell>
        <mxCell id="dfvIXqUmNmXKtJPytcft-4" value="" style="edgeStyle=orthogonalEdgeStyle;rounded=0;orthogonalLoop=1;jettySize=auto;html=1;" edge="1" parent="1" source="dfvIXqUmNmXKtJPytcft-1" target="dfvIXqUmNmXKtJPytcft-3">
          <mxGeometry relative="1" as="geometry" />
        </mxCell>
        <mxCell id="dfvIXqUmNmXKtJPytcft-1" value="To KIPIC&lt;br&gt;for bringing entry equipments to training hall in Mangaf" style="whiteSpace=wrap;html=1;verticalAlign=top;labelBackgroundColor=#ffffff;" vertex="1" parent="1">
          <mxGeometry x="824" y="279" width="93" height="91" as="geometry" />
        </mxCell>
        <mxCell id="dfvIXqUmNmXKtJPytcft-3" value="Bring food for the people &amp;amp; stay in Mangaf till training is over" style="whiteSpace=wrap;html=1;verticalAlign=top;labelBackgroundColor=#ffffff;" vertex="1" parent="1">
          <mxGeometry x="953" y="278" width="83" height="92" as="geometry" />
        </mxCell>
      </root>
    </mxGraphModel>
  </diagram>
</mxfile>
